<svg width="162" height="94" viewBox="0 0 162 94" fill="none" xmlns="http://www.w3.org/2000/svg">
<path d="M81.0825 8.95525V54.4695L93.9744 62.034M81.0825 8.95525L94.2124 1L161 39.6805M81.0825 8.95525L81.1535 8.99592M161 39.6805V84.5957L147.766 92.2901M161 39.6805L147.766 47.1924M147.766 92.2901L134.223 84.5957V70.1197M147.766 92.2901V47.1924M120.835 77.4229V46.8502L134.223 54.4695V70.1197M120.835 77.4229L107.825 70.1197M120.835 77.4229L134.223 70.1197M93.9744 62.034L107.825 70.1197M93.9744 62.034L93.9747 61.9925M93.9744 62.034L107.79 54.7307M107.825 70.1197V84.5957L94.2833 92.2901M107.825 70.1197L94.2833 77.4229M107.825 70.1197L93.9747 61.9925M107.825 70.1197L107.79 54.7307M147.766 47.1924L81.1535 8.99592M54.3395 8.95525L67.6379 1L81.1535 8.95525M54.3395 8.95525L67.6379 16.2797M54.3395 8.95525V70.1197M54.3395 8.95525L54.3396 24.2138M81.1535 8.95525L67.6379 16.2797M81.1535 8.95525V8.99592M94.2833 92.2901L54.3395 70.1197M94.2833 92.2901V77.4229M54.3395 70.1197L54.3396 24.2138M54.3395 70.1197L40.9069 77.4229M67.6379 16.2797V62.034M67.6379 62.034L94.2833 77.4229M67.6379 62.034L81.1535 54.4695M81.1535 54.4695V8.99592M81.1535 54.4695L93.9747 61.9925M1 8.95525L14.1719 1L54.3396 24.2138M1 8.95525V84.5957L14.1719 92.2901M1 8.95525L40.9069 31.6991M54.3396 24.2138L40.9069 31.6991M40.9069 77.4229L27.4742 69.6909M40.9069 77.4229V31.6991M27.4742 69.6909L14.1719 62.034V92.2901M27.4742 69.6909V84.5957L14.1719 92.2901M93.9747 61.9925L94.2124 31.6991L107.755 39.3416L107.79 54.7307M14.1719 47.1924V31.6991L27.4742 39.6805V54.4695L14.1719 47.1924Z" stroke="#333333" stroke-width="1.5" stroke-linejoin="round"/>
</svg>
