<svg width="350" height="35" viewBox="0 0 350 35" fill="none" xmlns="http://www.w3.org/2000/svg">
<g clip-path="url(#clip0_15_582)">
<mask id="mask0_15_582" style="mask-type:luminance" maskUnits="userSpaceOnUse" x="0" y="0" width="350" height="35">
<path d="M349.989 0H0.208679V34.7051H349.989V0Z" fill="white"/>
</mask>
<g mask="url(#mask0_15_582)">
<path d="M98.3458 0.424316V13.3559H77.3355V0.424316H68.83V34.4516H77.3355V21.2665H98.3458V34.4516H106.854V0.424316H98.3458Z" fill="white"/>
<path d="M148.401 34.4516H157.631L144.446 7.61308C141.766 2.16778 138.45 0 133.387 0C128.325 0 125.008 2.17036 122.328 7.61308L109.143 34.4516H118.373L121.713 27.5188H145.064L148.404 34.4516H148.401ZM125.236 20.2033L129.476 11.4002C130.498 9.27384 131.729 8.50813 133.39 8.50813C135.051 8.50813 136.282 9.27384 137.303 11.4002L141.544 20.2033H125.239H125.236Z" fill="white"/>
<path d="M186.425 0.424316H149.635V8.08137H163.757V34.4516H172.262V8.08137H186.425V0.424316Z" fill="white"/>
<path d="M227.81 14.6726V12.4609C227.81 6.03776 221.875 0.168213 212.646 0.168213H203.868C194.341 0.168213 187.703 6.07915 187.703 14.714V20.1593C187.703 28.7943 194.341 34.7052 203.868 34.7052H212.646C221.875 34.7052 227.81 28.8356 227.81 22.4125V20.2007H219.304V21.1372C219.304 24.7536 216.415 26.9628 211.525 26.9628H205.146C199.916 26.9628 196.636 24.3681 196.636 19.9886V14.8848C196.636 10.5052 199.913 7.91064 205.146 7.91064H211.525C216.417 7.91064 219.304 10.1224 219.304 13.7362V14.6726H227.81Z" fill="white"/>
<path d="M261.116 0.424316V13.3559H240.105V0.424316H231.597V34.4516H240.105V21.2665H261.116V34.4516H269.622V0.424316H261.116Z" fill="white"/>
<path d="M284.261 8.08137H309.914V0.424316H283.539C277.116 0.424316 273.926 3.40176 273.926 9.44205V25.4339C273.926 31.4742 277.116 34.4516 283.539 34.4516H309.914V26.7972H284.261C282.9 26.7972 282.432 26.1582 282.432 24.9683V21.0544H309.914V13.8242H282.432V9.91026C282.432 8.72032 282.9 8.08137 284.261 8.08137Z" fill="white"/>
<path d="M349.99 0.424316H313.2V8.08137H327.321V34.4516H335.827V8.08137H349.99V0.424316Z" fill="white"/>
<path d="M5.05643 27.0507C-1.40809 20.5862 -1.40809 14.207 5.05643 7.74249L12.416 0.424316H24.2249L7.21127 17.3966L24.2249 34.4516H12.416L5.05902 27.0507H5.05643Z" fill="#CD001A"/>
<path d="M46.9685 27.0507C53.4331 20.5862 53.4331 14.207 46.9685 7.74249L39.6116 0.424316H27.8026L44.8163 17.394L27.8026 34.449H39.6116L46.9685 27.0481V27.0507Z" fill="#CD001A"/>
</g>
</g>
<defs>
<clipPath id="clip0_15_582">
<rect width="350" height="34.9224" fill="white"/>
</clipPath>
</defs>
</svg>
