<svg width="282" height="52" xmlns="http://www.w3.org/2000/svg" xmlns:xlink="http://www.w3.org/1999/xlink" version="1.1" id="Layer_1" x="0px" y="0px" viewBox="0 0 756.7 140.1" style="enable-background:new 0 0 756.7 140.1;" xml:space="preserve"><script xmlns="" id="bw-fido2-page-script"/> <style type="text/css"> .st0{fill:#595A5C;} .st1{clip-path:url(#SVGID_2_);} .st2{opacity:0.86;} .st3{clip-path:url(#SVGID_4_);} .st4{fill:#B2E1F4;} .st5{clip-path:url(#SVGID_6_);} .st6{opacity:0.46;} .st7{clip-path:url(#SVGID_8_);} .st8{fill:#F69320;} .st9{clip-path:url(#SVGID_10_);} .st10{clip-path:url(#SVGID_12_);} .st11{opacity:0.57;} .st12{clip-path:url(#SVGID_14_);} .st13{fill:#E90E8B;} .st14{opacity:0.48;} .st15{clip-path:url(#SVGID_16_);} .st16{fill:#F8EB30;} .st17{clip-path:url(#SVGID_18_);} .st18{opacity:0.65;} .st19{clip-path:url(#SVGID_20_);} </style> <path class="st0" d="M199.9,63.5c-0.1-8.2-1.5-9-14.6-9c-12.9,0-14.8,1.1-14.8,9c0,5.1,1,7.4,3.5,8.3c1.5,0.6,1.5,0.6,11.7,1.1 c10.9,0.5,10.9,0.5,13,0.9c7.6,1.3,11.1,6.2,11.1,15.9c0,5.7-1.6,10.3-4.5,12.8c-3.5,2.9-8.8,4-20.1,4c-10.4,0-15.1-1-19-3.9 c-3-2.3-4.8-6.5-4.8-11.8c0-0.7,0-2.1,0.1-3.3h8.5c-0.1,0.9-0.1,1.8-0.1,2.7c0,3.3,0.9,6,2.4,7.6c1.5,1.4,5.6,2.1,12.6,2.1 c13.3,0,16.3-2,16.3-10.4c0-7.1-1.7-8.9-8.2-8.9c-8.4-0.1-18.5-1-21.8-1.8c-6.7-1.6-9.3-5.7-9.3-14.9c0-12.7,4.8-16,23.5-16 c12.4,0,18.3,1.8,21,6.3c1.2,2.2,1.6,4.1,1.6,9.4L199.9,63.5z"/> <path class="st0" d="M229.8,48.6l-0.4,7.2l0.1,0.1c3.2-5.9,8.4-8.2,18.8-8.2c7.7,0,13.9,2.1,17,5.6c3.7,4.3,5.2,11.8,5.2,24.5 c0,21.3-5.5,28.5-21.8,28.5c-10.4,0-15.4-2.1-18.7-7.6h-0.2V130h-8.3V48.6H229.8z M234.1,57.6c-2.8,2.4-4.2,9-4.2,19.8 c0,17.7,3.2,22,16.6,22c12.6,0,15.4-4,15.4-21.8c0-19-2.6-22.7-16-22.7C239.9,54.9,236.2,55.7,234.1,57.6L234.1,57.6z"/> <path class="st0" d="M283.9,64.6c0.2-13.7,4.5-16.8,22.7-16.8c18.4,0,23.7,4.5,23.7,20.2v37.6H322l0.6-6.1l-0.1-0.1 c-3.5,5.4-8.3,7.1-19.4,7.1c-15.9,0-21.5-4.5-21.5-17.3c0-6.6,2.1-12.4,5.3-14.8s8.7-3.4,16.6-3.4c6.1,0,11,0.7,14.4,2.1 c2,0.7,2.8,1.6,3.9,3.8l0.3-0.1v-6.8c0-13.3-2.3-15.6-14.9-15.6c-11.5,0-14.9,2-14.9,8.5v1.8L283.9,64.6z M290.3,87.8 c0,9.5,2.6,11.6,14.4,11.6c7.4,0,12.7-1.1,15.2-3.3c1.7-1.3,2.4-3.7,2.4-7.2c0-8.7-3.7-11.2-16.1-11.2 C293,77.7,290.3,79.4,290.3,87.8z"/> <path class="st0" d="M392.1,85c0,8.1-0.6,11.6-3,14.9c-3.3,4.8-9.4,6.6-21.1,6.6c-20.2,0-25-5.6-25-30c0-22.4,5.4-28.7,25.1-28.7 c12.3,0,19,2.8,21.6,9c1.1,2.6,1.5,5.1,1.5,10.4h-8.3v-1.5c0-8.4-3.4-10.9-15.2-10.9c-7.2,0-10.7,0.9-12.9,3.3c-2,2.2-3,8.9-3,19.2 c0,9.5,1.1,15.9,3.4,18.9c1.7,2.3,5.7,3.2,14.5,3.2c12.2,0,14.3-2.2,14.3-14.4L392.1,85z"/> <path class="st0" d="M452.2,88.4c0.1,0.8,0.1,1.5,0.1,2.3c0,11.7-6.3,15.7-24.5,15.7c-20.6,0-25.4-5.5-25.4-29.5 c0-23.5,4.9-29.1,25.6-29.1c14,0,19.6,2.7,22.4,10.9c1.3,4,1.7,7.3,1.7,20h-41c0.1,18,2.2,20.7,16.5,20.7c14.3,0,16.1-1.2,16-11 L452.2,88.4z M443.7,72.2c-0.1-7.9-0.2-9.3-1.2-12.1c-1.5-4.1-5.1-5.6-14.3-5.6c-14.3,0-17,2.8-16.8,17.7H443.7z"/> <path class="st0" d="M513,85c0,8.1-0.6,11.6-3.1,14.9c-3.3,4.8-9.4,6.6-21.1,6.6c-20.3,0-25-5.6-25-30c0-22.4,5.4-28.7,25.1-28.7 c12.3,0,19,2.8,21.6,9c1.1,2.6,1.5,5.1,1.5,10.4h-8.3v-1.5c0-8.4-3.4-10.9-15.2-10.9c-7.2,0-10.7,0.9-12.9,3.3c-2,2.2-3,9-3,19.2 c0,9.5,1.1,15.9,3.4,18.9c1.7,2.3,5.7,3.2,14.5,3.2c12.2,0,14.3-2.2,14.3-14.4H513z"/> <path class="st0" d="M570.9,105.6h-8.3l0.6-7.4l-0.3-0.2c-2.9,5.9-9,8.5-18.9,8.5c-13.9,0-19.6-5.9-19.6-19.9V48.6h8.3v37.9 c0,10.2,2.6,12.8,12.7,12.8c13,0,17.2-4.3,17.2-18V48.6h8.3L570.9,105.6z"/> <path class="st0" d="M585.5,24.2h8.3V56l0.2,0.1c1-3.2,2.3-4.6,4.9-5.9c3.4-1.6,8.3-2.4,13.7-2.4c16.7,0,22.1,7.3,22.1,30 c0,21.6-5.7,28.7-23,28.7c-9.8,0-14.9-2.3-18.1-7.9h-0.1l0.4,7.1h-8.3V24.2z M594.1,75.3c0,20.5,2.4,24,16.5,24 c12.7,0,15.5-3.9,15.5-22.2s-2.7-22.3-15.4-22.3C597.5,54.9,594.1,59.1,594.1,75.3L594.1,75.3z"/> <path class="st0" d="M696,88.4c0.1,0.8,0.1,1.5,0.1,2.3c0,11.7-6.3,15.7-24.5,15.7c-20.6,0-25.4-5.5-25.4-29.5 c0-23.5,4.9-29.1,25.6-29.1c14,0,19.6,2.7,22.4,10.9c1.4,4,1.7,7.3,1.7,20h-41c0.1,18,2.2,20.7,16.5,20.7s16.1-1.2,16-11L696,88.4z M687.5,72.2c-0.1-7.9-0.3-9.3-1.2-12.1c-1.5-4.1-5.1-5.6-14.3-5.6c-14.3,0-17,2.8-16.8,17.7H687.5z"/> <path class="st0" d="M756.7,105.6h-8.3l0.4-7.4h-0.1c-2.8,5.9-8.3,8.3-18.4,8.3c-8.2,0-13.9-2-17.3-5.7c-3.9-4.3-5.4-11.1-5.4-24.4 c0-21.3,5.5-28.5,22.1-28.5c6,0,10.7,1,14.3,2.8c2.3,1.2,3.3,2.4,4.3,5.3l0.2-0.1V24.2h8.3L756.7,105.6z M720.2,57.8 c-2.6,2.6-3.9,8.7-3.9,18c0,19.5,2.7,23.5,15.9,23.5c6.1,0,10.1-1.1,12.6-3.4c2.4-2.3,3.8-9.4,3.8-20.5c0-16.1-3.7-20.6-16.5-20.6 C726.5,54.9,722,56,720.2,57.8L720.2,57.8z"/> <g> <defs> <rect id="SVGID_1_" x="0.1" y="0.1" width="140" height="140"/> </defs> <clipPath id="SVGID_2_"> <use xlink:href="#SVGID_1_" style="overflow:visible;"/> </clipPath> <g class="st1"> <g class="st2"> <g> <defs> <rect id="SVGID_3_" x="-11.4" y="-13.2" width="181.6" height="163.2"/> </defs> <clipPath id="SVGID_4_"> <use xlink:href="#SVGID_3_" style="overflow:visible;"/> </clipPath> <g class="st3"> <polygon class="st4" points="170.3,-13.2 -11.4,150 -6.9,83.7 "/> </g> </g> </g> <g class="st2"> <g> <defs> <rect id="SVGID_5_" x="44" y="34.5" width="66.9" height="177.5"/> </defs> <clipPath id="SVGID_6_"> <use xlink:href="#SVGID_5_" style="overflow:visible;"/> </clipPath> <g class="st5"> <polygon class="st4" points="110.9,212 44,34.5 94.7,59.7 "/> </g> </g> </g> <g class="st6"> <g> <defs> <rect id="SVGID_7_" x="-44.9" y="9" width="241.2" height="112.9"/> </defs> <clipPath id="SVGID_8_"> <use xlink:href="#SVGID_7_" style="overflow:visible;"/> </clipPath> <g class="st7"> <polygon class="st8" points="196.3,121.9 -44.9,45.4 28.6,9 "/> </g> </g> </g> <g class="st2"> <g> <defs> <rect id="SVGID_9_" x="-0.1" y="-39.4" width="150.3" height="192"/> </defs> <clipPath id="SVGID_10_"> <use xlink:href="#SVGID_9_" style="overflow:visible;"/> </clipPath> <g class="st9"> <polygon class="st4" points="-0.1,-39.4 150.2,152.6 79.8,138 "/> </g> </g> </g> <g class="st6"> <g> <defs> <rect id="SVGID_11_" x="6.1" y="-37" width="122.2" height="224.6"/> </defs> <clipPath id="SVGID_12_"> <use xlink:href="#SVGID_11_" style="overflow:visible;"/> </clipPath> <g class="st10"> <polygon class="st8" points="6.1,187.6 89.2,-37 128.3,30.5 "/> </g> </g> </g> <g class="st11"> <g> <defs> <rect id="SVGID_13_" x="20.5" y="-39.8" width="78.1" height="236.4"/> </defs> <clipPath id="SVGID_14_"> <use xlink:href="#SVGID_13_" style="overflow:visible;"/> </clipPath> <g class="st12"> <polygon class="st13" points="98.6,-39.8 76,196.7 20.5,140.5 "/> </g> </g> </g> <g class="st14"> <g> <defs> <rect id="SVGID_15_" x="-31.5" y="15.3" width="223" height="124.4"/> </defs> <clipPath id="SVGID_16_"> <use xlink:href="#SVGID_15_" style="overflow:visible;"/> </clipPath> <g class="st15"> <polygon class="st16" points="191.5,15.3 -31.5,139.7 -11,63.8 "/> </g> </g> </g> <g class="st14"> <g> <defs> <rect id="SVGID_17_" x="44.3" y="-52.7" width="72.8" height="228.9"/> </defs> <clipPath id="SVGID_18_"> <use xlink:href="#SVGID_17_" style="overflow:visible;"/> </clipPath> <g class="st17"> <polygon class="st16" points="53.9,-52.7 117.1,176.2 44.3,140.1 "/> </g> </g> </g> <g class="st18"> <g> <defs> <rect id="SVGID_19_" x="-66.8" y="38.9" width="259" height="65.5"/> </defs> <clipPath id="SVGID_20_"> <use xlink:href="#SVGID_19_" style="overflow:visible;"/> </clipPath> <g class="st19"> <polygon class="st13" points="-66.8,77.8 192.2,38.9 144.4,104.4 "/> </g> </g> </g> </g> </g> </svg>
